# xmcd
#
# Track frame offsets: 
#        150
#        24385
#        43866
#        62842
#        83655
#        105253
#        123410
#        139399
#        165493
#        190773
#        209799
#        229227
#        251444
#        272360
#
# Disc length: 3915 seconds
#
# Revision: 0
# Processed by: cddbd v1.5.2PL0 Copyright (c) Steve Scherf et al.
# Submitted via: ExactAudioCopyFreeDBPlugin 1.0
#
DISCID=be0f490e
DTITLE=雷婷 - stereo 金装雷婷
DYEAR=2012
DGENRE=Acid
TTITLE0=我是真的爱你
TTITLE1=不要让我再流泪
TTITLE2=我把爱情想得太完美
TTITLE3=爱情断了线
TTITLE4=夜上海
TTITLE5=爱上你是一个错
TTITLE6=思念谁
TTITLE7=真的痛了
TTITLE8=太傻
TTITLE9=对不起我的最爱
TTITLE10=如果我说忘了你
TTITLE11=摘下满天星
TTITLE12=最浪漫的事
TTITLE13=今生最爱
EXTD=
EXTT0=
EXTT1=
EXTT2=
EXTT3=
EXTT4=
EXTT5=
EXTT6=
EXTT7=
EXTT8=
EXTT9=
EXTT10=
EXTT11=
EXTT12=
EXTT13=
PLAYORDER=
